# Blender 3.3.1
# www.blender.org
mtllib house.mtl
o Cube
v 10.000000 -10.000000 10.000000
v 10.000000 0.000000 10.000000
v 10.000000 -10.000000 -10.000000
v 10.000000 0.000000 -10.000000
v -10.000000 -10.000000 10.000000
v -10.000000 0.000000 10.000000
v -10.000000 -10.000000 -10.000000
v -10.000000 0.000000 -10.000000
v -10.000000 0.000000 0.000000
v 10.000000 -15.000000 0.000000
v -10.000000 -15.000000 0.000000
v 10.000000 0.000000 0.000000
v 10.000000 -10.000000 10.000000
v -10.000000 -10.000000 -10.000000
v 10.000000 -10.000000 -10.000000
v -10.000000 -10.000000 10.000000
v 10.000000 -10.000000 0.000000
v -10.000000 -10.000000 0.000000
v 4.896409 0.000000 10.000000
v -3.195123 -10.000000 -10.000000
v -3.195123 0.000000 -10.000000
v -3.195123 0.000000 0.000000
v 4.896409 -10.000000 10.000000
v -3.195123 -10.000000 -10.000000
vn -0.0000 -1.0000 -0.0000
vn -0.0000 -0.8944 0.4472
vn 1.0000 -0.0000 -0.0000
vn -1.0000 -0.0000 -0.0000
vn -0.0000 -0.0000 1.0000
vn -0.0000 -0.0000 -1.0000
vn -0.0000 -0.8944 -0.4472
vt 0.773438 0.426562
vt 0.757637 0.717679
vt 0.548047 0.447917
vt 0.762292 0.429570
vt 0.760938 0.718750
vt 0.546730 0.453622
vt 0.551772 0.014061
vt 0.757422 0.718750
vt 0.550000 0.705729
vt 0.773078 0.428032
vt 0.766797 0.708333
vt 0.777283 0.450521
vt 0.771875 0.705729
vt 0.548828 0.708333
vt 0.025993 0.990387
vt 0.525993 0.995595
vt 0.552126 0.009658
vt 0.990234 0.003125
vt 0.525993 0.022634
vt 0.770311 0.430727
vt 0.987922 0.010294
vt 0.025993 0.012217
vt 0.767271 0.453622
vt 0.547770 0.717679
vt 0.025993 0.995595
vt 0.773438 0.426562
vt 0.757637 0.992188
vt 0.548047 0.715506
vt 0.773078 0.428032
vt 0.766797 0.994792
vt 0.777283 0.983735
vt 0.531853 0.012217
vt 0.546730 0.709223
vt 0.760938 0.983735
vt 0.531853 0.990387
vt 0.762292 0.429570
vt 0.549608 0.011436
vt 0.025993 0.022634
vt 0.550000 0.984375
vt 0.757422 0.994151
vt 0.773438 0.003125
vt 0.762292 0.009658
vt 0.547770 0.992188
vt 0.767271 0.709223
vt 0.773078 0.010294
vt 0.764128 0.012412
vt 0.548828 0.994792
vt 0.771875 0.984375
vt 0.762460 0.447917
vt 0.555429 0.718750
vt 0.773078 0.428032
vt 0.762292 0.429570
vt 0.992679 0.450521
vt 0.552384 0.718750
vt 0.762460 0.715506
vt 0.555429 0.994151
vt 0.762292 0.429570
vt 0.773078 0.428032
vt 0.992679 0.983735
vt 0.552384 0.983735
s 0
usemtl house.png
f 24/58/1 7/10/1 14/29/1
f 18/46/1 5/7/1 16/37/1
f 10/16/2 16/38/2 11/19/2
f 17/42/1 3/4/1 15/36/1
f 13/26/3 10/18/3 17/41/3
f 14/29/4 11/21/4 18/45/4
f 14/30/4 9/14/4 8/11/4
f 13/27/3 12/24/3 2/2/3
f 23/55/5 2/3/5 19/49/5
f 17/44/3 4/6/3 12/23/3
f 18/48/4 6/9/4 9/13/4
f 24/59/6 8/12/6 21/53/6
f 15/34/6 21/54/6 4/5/6
f 16/40/5 19/50/5 6/8/5
f 11/22/7 15/35/7 10/15/7
f 15/36/1 20/52/1 24/57/1
f 24/58/1 20/51/1 7/10/1
f 18/46/4 11/20/4 5/7/4
f 10/16/2 13/25/2 16/38/2
f 17/42/3 10/17/3 3/4/3
f 13/26/1 1/1/1 10/18/1
f 14/29/1 7/10/1 11/21/1
f 14/30/4 18/47/4 9/14/4
f 13/27/3 17/43/3 12/24/3
f 23/55/5 13/28/5 2/3/5
f 17/44/3 15/33/3 4/6/3
f 18/48/4 16/39/4 6/9/4
f 24/59/6 14/31/6 8/12/6
f 15/34/6 24/60/6 21/54/6
f 16/40/5 23/56/5 19/50/5
f 11/22/7 14/32/7 15/35/7
f 15/36/1 3/4/1 20/52/1
l 22 9
l 12 22
