# Blender 3.3.1
# www.blender.org
mtllib model2.mtl
o Cube
v 1.000000 -1.000000 1.000000
v 1.000000 1.000000 1.000000
v 1.000000 -1.000000 -1.000000
v 1.000000 1.000000 -1.000000
v -1.000000 -1.000000 1.000000
v -1.000000 1.000000 1.000000
v -1.000000 -1.000000 -1.000000
v -1.000000 1.000000 -1.000000
v 0.000000 -2.462001 0.000000
vn -0.0000 -1.0000 -0.0000
vn -0.0000 1.0000 -0.0000
vn -0.0000 -0.0000 1.0000
vn -1.0000 -0.0000 -0.0000
vn -0.7071 -0.0000 0.7071
vn 0.8254 -0.5646 -0.0000
vn 1.0000 -0.0000 -0.0000
vn -0.0000 -0.5646 -0.8254
vn -0.0000 -0.0000 -1.0000
vt 0.340663 0.524559
vt 0.339959 0.522306
vt 0.325069 0.502000
vt 0.009198 0.979356
vt 0.312343 0.485541
vt 0.312343 0.054799
vt 0.720313 0.467139
vt 0.009197 0.028338
vt 0.010817 0.514304
vt 0.674500 0.007382
vt 0.025183 0.485541
vt 0.644424 0.487542
vt 0.581902 0.467139
vt 0.644424 0.055366
vt 0.025183 0.054799
vt 0.648391 0.511434
vt 0.987881 0.979356
vt 0.678221 0.988357
vt 0.987880 0.028338
vt 0.720313 0.000000
vt 0.678221 0.529739
vt 0.665486 0.986778
vt 0.663943 0.986865
vt 0.990392 0.007382
vt 0.989647 0.988357
vt 0.295356 0.487542
vt 0.989647 0.529739
vt 0.581902 0.000000
vt 0.295356 0.055366
vt 0.339712 0.989030
vt 0.199933 0.983113
vt 0.822602 0.483645
s 0
usemtl CUBE
f 5/16/1 7/22/1 1/1/1
f 8/28/2 2/7/2 4/13/2
f 5/17/3 2/8/3 6/19/3
f 7/25/4 6/21/4 8/27/4
f 9/30/5 1/2/5 7/23/5
f 1/3/6 9/31/6 3/9/6
f 1/5/7 4/15/7 2/6/7
f 3/10/8 9/32/8 7/24/8
f 3/12/9 8/29/9 4/14/9
f 8/28/2 6/20/2 2/7/2
f 5/17/3 1/4/3 2/8/3
f 7/25/4 5/18/4 6/21/4
f 1/5/7 3/11/7 4/15/7
f 3/12/9 7/26/9 8/29/9
