# Blender v3.1.2 OBJ File: 'quad.blend'
# www.blender.org
mtllib quad.mtl
o Cube
v 1.000000 -1.000000 1.000000
v 1.000000 1.000000 1.000000
v 1.000000 -1.000000 -1.000000
v 1.000000 1.000000 -1.000000
v -1.000000 -1.000000 1.000000
v -1.000000 1.000000 1.000000
v -1.000000 -1.000000 -1.000000
v -1.000000 1.000000 -1.000000
v -1.000000 1.000000 0.000000
v 1.000000 -1.000000 0.000000
v -1.000000 -1.000000 0.000000
v 1.000000 1.000000 0.000000
v 0.000000 1.000000 1.000000
v 0.000000 -1.000000 -1.000000
v 0.000000 1.000000 -1.000000
v 0.000000 -1.000000 1.000000
v 0.000000 1.000000 0.000000
v 0.000000 -1.000000 0.000000
v -1.000000 1.000000 -0.500000
v 1.000000 -1.000000 -0.500000
v -1.000000 -1.000000 -0.500000
v 1.000000 1.000000 -0.500000
v 0.000000 1.000000 -0.500000
v 0.000000 -1.000000 -0.500000
v -1.000000 -2.194131 -0.500000
v -1.000000 -2.194131 0.000000
v 0.000000 -2.194131 0.000000
v 0.000000 -2.194131 -0.500000
v -1.770591 0.311628 -0.672093
v -1.770591 0.311628 -0.827907
v -1.770591 -0.311628 -0.827907
v -1.770591 -0.311628 -0.672093
v 0.288623 -2.964806 0.711377
v 0.711377 -2.964806 0.711377
v 0.711377 -2.964806 0.288623
v 0.288623 -2.964806 0.288623
vt 0.000000 0.000000
vt 1.000000 0.000000
vt 1.000000 1.000000
vt 0.000000 1.000000
vt 0.499517 0.495497
vt 0.499517 0.986816
vt 0.339712 0.986816
vt 0.339712 0.495497
vt 0.000000 0.000000
vt 1.000000 0.000000
vt 1.000000 1.000000
vt 0.000000 1.000000
vt 0.333333 0.750000
vt 0.666667 0.750000
vt 0.666667 1.000000
vt 0.333333 1.000000
vt 0.000000 0.000000
vt 1.000000 0.000000
vt 1.000000 1.000000
vt 0.000000 1.000000
vt 0.000000 0.000000
vt 1.000000 0.000000
vt 1.000000 1.000000
vt 0.000000 1.000000
vt 0.000000 0.000000
vt 1.000000 0.000000
vt 1.000000 1.000000
vt 0.000000 1.000000
vt 0.333333 0.000000
vt 0.666667 0.000000
vt 0.666667 0.500000
vt 0.333333 0.500000
vt 0.000000 0.000000
vt 1.000000 1.000000
vt 0.000000 1.000000
vt 0.000000 0.000000
vt 1.000000 0.000000
vt 0.000000 1.000000
vt 0.000000 0.000000
vt 1.000000 1.000000
vt 0.000000 1.000000
vt 0.000000 0.000000
vt 0.000000 0.500000
vt 1.000000 1.000000
vt 0.000000 1.000000
vt 0.000000 0.750000
vt -0.000000 1.000000
vt 0.666485 0.489857
vt 0.666485 0.992456
vt 0.000000 0.000000
vt 1.000000 0.000000
vt 1.000000 1.000000
vt 0.000000 1.000000
vt 0.000000 0.000000
vt 1.000000 0.000000
vt 1.000000 1.000000
vt 0.000000 1.000000
vt 0.000000 0.000000
vt 1.000000 1.000000
vt 0.000000 1.000000
vt 0.000000 0.000000
vt 1.000000 0.000000
vt 1.000000 1.000000
vt 0.000000 1.000000
vt 0.000000 0.000000
vt 1.000000 1.000000
vt 0.000000 1.000000
vt 0.000000 0.000000
vt 1.000000 0.000000
vt 0.000000 1.000000
vt 0.000000 0.000000
vt 1.000000 1.000000
vt 0.000000 1.000000
vt 0.000000 0.000000
vt 1.000000 1.000000
vt 0.000000 1.000000
vt 1.000000 1.000000
vt 0.000000 0.000000
vt 1.000000 0.000000
vt 0.000000 1.000000
vt 1.000000 0.000000
vt 1.000000 1.000000
vt 1.000000 0.000000
vt 1.000000 1.000000
vt 0.000000 1.000000
vt 0.000000 0.000000
vt 1.000000 0.000000
vt 1.000000 1.000000
vt 0.000000 1.000000
vt 0.000000 0.000000
vt 1.000000 0.000000
vt 1.000000 1.000000
vt 0.000000 1.000000
vt 0.333026 0.007382
vt 0.660412 0.007382
vt 0.542294 0.495539
vt 0.428176 0.495539
vt 0.000000 1.000000
vt 1.000000 1.000000
vn 0.0000 -1.0000 0.0000
vn 0.0000 0.0000 -1.0000
vn -1.0000 0.0000 0.0000
vn 0.0000 1.0000 0.0000
vn 1.0000 0.0000 0.0000
vn 0.0000 0.0000 1.0000
vn 0.0000 -0.1453 0.9894
vn -0.6662 -0.7458 0.0000
vn -0.6662 0.7458 0.0000
vn -0.2180 0.0000 0.9760
vn -0.2180 0.0000 -0.9760
vn 0.0000 -0.1453 -0.9894
vn -0.9894 -0.1453 0.0000
vn 0.9894 -0.1453 0.0000
usemtl Material
s off
f 24/1/1 21/2/1 7/3/1 14/4/1
f 15/5/2 14/6/2 7/7/2 8/8/2
f 9/9/3 11/10/3 5/11/3 6/12/3
f 23/13/4 22/14/4 4/15/4 15/16/4
f 22/17/5 20/18/5 3/19/5 4/20/5
f 13/21/6 16/22/6 1/23/6 2/24/6
f 2/25/5 1/26/5 10/27/5 12/28/5
f 13/29/4 2/30/4 12/31/4 17/32/4
f 19/33/3 21/2/3 11/34/3 9/35/3
f 16/36/1 5/37/1 11/34/1 18/38/1
f 1/39/7 16/22/7 33/40/7 34/41/7
f 6/42/4 13/29/4 17/32/4 9/43/4
f 6/42/6 5/37/6 16/44/6 13/45/6
f 19/46/4 23/13/4 15/16/4 8/47/4
f 4/48/2 3/49/2 14/6/2 15/5/2
f 20/50/1 24/51/1 14/52/1 3/53/1
f 10/54/1 18/55/1 24/56/1 20/57/1
f 9/43/4 17/32/4 23/13/4 19/46/4
f 7/58/8 21/2/8 32/59/8 31/60/8
f 12/61/5 10/62/5 20/63/5 22/64/5
f 17/32/4 12/31/4 22/14/4 23/13/4
f 11/65/3 21/2/3 25/66/3 26/67/3
f 27/68/1 26/69/1 25/66/1 28/70/1
f 18/71/6 11/10/6 26/72/6 27/73/6
f 21/74/2 24/51/2 28/75/2 25/76/2
f 24/1/5 18/55/5 27/77/5 28/70/5
f 30/78/3 31/79/3 32/59/3 29/80/3
f 19/33/9 8/81/9 30/82/9 29/80/9
f 21/74/10 19/83/10 29/84/10 32/85/10
f 8/86/11 7/87/11 31/88/11 30/89/11
f 34/90/1 33/91/1 36/92/1 35/93/1
f 18/94/12 10/95/12 35/96/12 36/97/12
f 16/36/13 18/55/13 36/92/13 33/98/13
f 10/54/14 1/26/14 34/99/14 35/93/14
