# Blender 3.6.7
# www.blender.org
v 0.503538 0.001407 -0.106286
v 0.583878 0.183029 0.024902
v 0.751730 0.001407 -0.028624
v 0.583878 0.183029 0.024902
v 0.503538 0.001407 -0.106286
v 0.563530 0.516981 0.025202
v 0.503538 0.001407 0.156090
v 0.409406 0.114492 0.024902
v 0.409406 0.001407 -0.041769
v 0.409406 -0.111678 0.024902
v 0.583878 -0.180214 0.024902
v 0.563529 -0.514166 0.025202
v 0.409406 0.001407 0.091573
v 0.409406 0.001407 0.091573
v 0.409406 0.114492 0.024902
v -0.334524 0.001407 0.092599
v -0.427465 0.001407 -0.095472
v -0.490411 0.001407 0.024902
v -0.427465 0.137439 0.024902
v -0.334524 0.001407 -0.042795
v -0.427465 -0.134624 0.024902
v -0.334524 -0.082876 0.024902
v -0.427465 0.001407 0.145277
v -0.334524 0.085690 0.024902
v 0.409406 0.001407 -0.041769
v 0.409406 -0.111678 0.024902
v 0.503538 0.001407 0.156090
v 0.583878 -0.180214 0.024902
v 0.751730 0.001407 0.078428
v 2.696619 0.001407 0.024902
v 2.383973 -0.108210 0.024902
v 0.751730 0.001407 -0.028624
v 0.751730 0.001407 0.078428
v 2.383973 0.111025 0.024902
v 0.583878 0.183029 0.024902
v 2.696619 0.001407 0.024902
v 2.383973 -0.108210 0.024902
v 2.696619 0.001407 0.024902
v 0.751730 0.001407 0.078428
v 0.583878 -0.180214 0.024902
v 0.751730 0.001407 -0.028624
v 2.383973 0.111025 0.024902
v 2.696619 0.001407 0.024902
v 0.583878 0.183029 0.024902
v 0.583878 -0.180214 0.024902
vn -0.0336 -0.0000 -0.9994
vn 0.8956 0.4449 -0.0004
vn 0.2986 -0.0000 -0.9544
vn 0.4452 0.8954 0.0002
vn -0.0336 -0.0000 0.9994
vn -0.6081 0.7688 0.1979
vn -0.2160 -0.0000 -0.9764
vn -0.6081 -0.7688 0.1979
vn 0.8956 -0.4449 -0.0004
vn 0.4452 -0.8954 0.0001
vn -0.3016 -0.0000 0.9534
vn -0.3017 -0.0000 0.9534
vn 0.1598 -0.0000 0.9871
vn -0.3583 -0.0000 -0.9336
vn -1.0000 -0.0000 -0.0000
vn -0.2092 0.9416 -0.2637
vn 0.3108 -0.0000 -0.9505
vn -0.2092 -0.9416 -0.2637
vn 0.2803 -0.9587 -0.0492
vn -0.0377 -0.0000 0.9993
vn 0.2803 0.9587 -0.0492
vn 0.2986 -0.0000 0.9544
vn 0.0274 -0.0782 -0.9966
vn 0.0197 -0.1866 -0.9822
vn 0.0197 -0.1865 -0.9823
vn 0.0197 0.1865 0.9823
vn 0.0197 0.1866 0.9822
vn 0.0117 0.2926 0.9562
vn 0.0274 0.0782 0.9966
vn 0.0197 -0.1866 0.9822
vn 0.0274 -0.0782 0.9966
vn 0.0197 -0.1865 0.9823
vn 0.0117 -0.2926 0.9562
vn 0.0197 0.1865 -0.9823
vn 0.0197 0.1866 -0.9822
vn 0.0274 0.0782 -0.9966
vn 0.0117 0.2926 -0.9562
vn 0.0117 -0.2926 -0.9562
vt 0.007812 0.984375
vt 0.007812 0.515625
vt 0.148438 0.984375
vt 0.164062 0.234375
vt 0.007812 0.140625
vt 0.992188 0.234375
vt 0.382812 0.015625
vt 0.007812 0.015625
vt 0.992188 0.484375
vt 0.992188 0.265625
vt 0.242188 0.484375
vt 0.117188 0.484375
vt 0.007812 0.484375
vt 0.117188 0.265625
vt 0.242188 0.265625
vt 0.992188 0.984375
vt 0.992188 0.515625
s 1
usemtl sword1.png
f 1/1/1 2/2/2 3/3/3
f 4/4/2 5/5/1 6/6/4
f 6/6/4 7/5/5 4/4/2
f 8/7/6 7/5/5 6/6/4
f 6/6/4 5/5/1 8/7/6
f 9/8/7 8/7/6 5/5/1
f 5/5/1 10/7/8 9/8/7
f 11/4/9 7/5/5 12/6/10
f 7/5/5 8/7/6 13/8/11
f 13/8/11 10/7/8 7/5/5
f 12/6/10 7/5/5 10/7/8
f 10/7/8 5/5/1 12/6/10
f 12/6/10 5/5/1 11/4/9
f 14/9/12 15/10/6 16/11/13
f 17/12/14 18/13/15 19/14/16
f 17/12/14 19/14/16 20/11/17
f 20/11/17 21/14/18 17/12/14
f 21/14/18 20/11/17 22/15/19
f 22/15/19 23/12/20 21/14/18
f 23/12/20 22/15/19 16/11/13
f 16/11/13 24/15/21 23/12/20
f 24/15/21 16/11/13 15/10/6
f 15/10/6 25/9/7 24/15/21
f 16/11/13 26/10/8 14/9/12
f 26/10/8 16/11/13 22/15/19
f 22/15/19 25/9/7 26/10/8
f 25/9/7 22/15/19 20/11/17
f 20/11/17 24/15/21 25/9/7
f 24/15/21 20/11/17 19/14/16
f 19/14/16 23/12/20 24/15/21
f 19/14/16 18/13/15 23/12/20
f 23/12/20 18/13/15 21/14/18
f 21/14/18 18/13/15 17/12/14
f 27/1/5 28/2/9 29/3/22
f 29/3/22 2/2/2 27/1/5
f 3/3/3 28/2/9 1/1/1
f 30/16/23 31/17/24 32/3/25
f 33/3/26 34/17/27 35/2/28
f 33/3/26 36/16/29 34/17/27
f 37/17/30 38/16/31 39/3/32
f 40/2/33 37/17/30 39/3/32
f 41/3/34 42/17/35 43/16/36
f 41/3/34 44/2/37 42/17/35
f 31/17/24 45/2/38 32/3/25
